grf
version=1
nRows=26
nColumns=19
inDegrees=yes
endheader
time	ground_force_1_vx	ground_force_1_vy	ground_force_1_vz	ground_force_1_px	ground_force_1_py	ground_force_1_pz	ground_moment_1_mx	ground_moment_1_my	ground_moment_1_mz	ground_force_2_vx	ground_force_2_vy	ground_force_2_vz	ground_force_2_px	ground_force_2_py	ground_force_2_pz	ground_moment_2_mx	ground_moment_2_my	ground_moment_2_mz
0.000000	-47.027056	1227.566286	-506.246571	0.207191	0.000000	-0.730771	-0.000000	17.497425	0.000000	7.874754	1426.655103	511.247170	0.187270	0.000000	-1.582427	0.000000	-2.699105	-0.000000
0.001000	-46.890131	1227.351253	-506.087703	0.206879	0.000000	-0.731003	-0.000000	17.478356	0.000000	7.902224	1426.141541	510.652619	0.186696	0.000000	-1.582009	0.000000	-2.671311	-0.000000
0.002000	-46.746166	1227.066794	-505.909586	0.208004	0.000000	-0.731655	-0.000000	17.460099	0.000000	7.936312	1425.643856	510.035737	0.188693	0.000000	-1.583371	0.000000	-2.647313	-0.000000
0.003000	-46.595461	1226.708873	-505.710982	0.207480	0.000000	-0.730287	-0.000000	17.442936	0.000000	7.977573	1425.167293	509.398795	0.187783	0.000000	-1.580423	0.000000	-2.627734	-0.000000
0.004000	-46.438139	1226.274877	-505.490647	0.206702	0.000000	-0.730314	-0.000000	17.427022	0.000000	8.026612	1424.714047	508.744093	0.187993	0.000000	-1.581374	0.000000	-2.613057	-0.000000
0.005000	-46.274098	1225.763541	-505.247434	0.207173	0.000000	-0.729932	-0.000000	17.412394	0.000000	8.084104	1424.284769	508.073933	0.187963	0.000000	-1.580315	0.000000	-2.603607	-0.000000
0.006000	-46.103124	1225.174444	-504.980364	0.207423	0.000000	-0.730907	-0.000000	17.399028	0.000000	8.150737	1423.879855	507.390531	0.188100	0.000000	-1.580818	0.000000	-2.599556	-0.000000
0.007000	-45.925017	1224.507898	-504.688606	0.207866	0.000000	-0.730801	-0.000000	17.386886	0.000000	8.227189	1423.499630	506.695926	0.187512	0.000000	-1.580029	0.000000	-2.600911	-0.000000
0.008000	-45.739645	1223.764926	-504.371413	0.207428	0.000000	-0.730447	-0.000000	17.375890	0.000000	8.314139	1423.143804	505.991950	0.187111	0.000000	-1.579808	0.000000	-2.607503	-0.000000
0.009000	-45.546967	1222.946945	-504.028086	0.207207	0.000000	-0.729030	-0.000000	17.365913	0.000000	8.412282	1422.811076	505.280254	0.187252	0.000000	-1.579782	0.000000	-2.619021	-0.000000
0.010000	-45.347059	1222.055596	-503.658029	0.206908	0.000000	-0.729773	-0.000000	17.356804	0.000000	8.522262	1422.499175	504.562353	0.186903	0.000000	-1.579187	0.000000	-2.635071	-0.000000
0.011000	-45.140093	1221.092574	-503.260867	0.207688	0.000000	-0.727553	-0.000000	17.348433	0.000000	8.644634	1422.205056	503.839618	0.186698	0.000000	-1.579302	0.000000	-2.655225	-0.000000
0.012000	-44.926219	1220.059073	-502.836520	0.207577	0.000000	-0.729659	-0.000000	17.340687	0.000000	8.779897	1421.924982	503.113228	0.187215	0.000000	-1.580205	0.000000	-2.679059	-0.000000
0.013000	-44.705420	1218.955526	-502.385230	0.206984	0.000000	-0.730458	-0.000000	17.333455	0.000000	8.928521	1421.654436	502.384144	0.186426	0.000000	-1.579349	0.000000	-2.706161	-0.000000
0.014000	-44.477558	1217.782092	-501.907534	0.207577	0.000000	-0.729739	-0.000000	17.326649	0.000000	9.090901	1421.388207	501.653108	0.186654	0.000000	-1.578691	0.000000	-2.736135	-0.000000
0.015000	-44.242630	1216.539362	-501.404203	0.208050	0.000000	-0.730496	-0.000000	17.320240	0.000000	9.267314	1421.120853	500.920703	0.186237	0.000000	-1.579100	0.000000	-2.768591	-0.000000
0.016000	-44.000848	1215.229069	-500.876202	0.207612	0.000000	-0.730792	-0.000000	17.314223	0.000000	9.457903	1420.846942	500.187462	0.186241	0.000000	-1.578990	-0.000000	-2.803163	-0.000000
0.017000	-43.752421	1213.854539	-500.324715	0.208246	0.000000	-0.729853	-0.000000	17.308522	0.000000	9.662671	1420.560916	499.453963	0.186217	0.000000	-1.578383	-0.000000	-2.839510	-0.000000
0.018000	-43.497408	1212.420120	-499.751212	0.207292	0.000000	-0.731305	-0.000000	17.302981	0.000000	9.881468	1420.257131	498.720844	0.185848	0.000000	-1.579947	-0.000000	-2.877309	-0.000000
0.019000	-43.235852	1210.930386	-499.157491	0.207424	0.000000	-0.730597	-0.000000	17.297405	0.000000	10.113970	1419.930165	497.988776	0.185782	0.000000	-1.577983	-0.000000	-2.916254	-0.000000
0.020000	-42.967971	1209.390170	-498.545609	0.207091	0.000000	-0.729331	-0.000000	17.291612	0.000000	10.359694	1419.575311	497.258440	0.185867	0.000000	-1.576674	-0.000000	-2.956059	-0.000000
0.021000	-42.694289	1207.804757	-497.917747	0.207025	0.000000	-0.729452	-0.000000	17.285458	0.000000	10.618088	1419.189208	496.530504	0.185207	0.000000	-1.576646	-0.000000	-2.996463	-0.000000
0.022000	-42.415644	1206.179764	-497.276019	0.207616	0.000000	-0.730884	-0.000000	17.278849	0.000000	10.888602	1418.769899	495.805624	0.185615	0.000000	-1.577673	-0.000000	-3.037241	-0.000000
0.023000	-42.133065	1204.521039	-496.622347	0.207024	0.000000	-0.728685	-0.000000	17.271728	0.000000	11.170675	1418.316315	495.084449	0.185660	0.000000	-1.576882	-0.000000	-3.078204	-0.000000
0.024000	-41.847617	1202.834350	-495.958451	0.207287	0.000000	-0.729059	-0.000000	17.264067	0.000000	11.463703	1417.828232	494.367606	0.185350	0.000000	-1.577234	-0.000000	-3.119180	-0.000000
0.025000	-41.560350	1201.124911	-495.285868	0.206431	0.000000	-0.729927	-0.000000	17.255874	0.000000	11.767041	1417.306428	493.655703	0.184176	0.000000	-1.575686	-0.000000	-3.160016	-0.000000
